<?xml version="1.0" standalone="no"?>
<!DOCTYPE svg PUBLIC "-//W3C//DTD SVG 20010904//EN"
 "http://www.w3.org/TR/2001/REC-SVG-20010904/DTD/svg10.dtd">
<svg version="1.0" xmlns="http://www.w3.org/2000/svg"
 width="840.000000pt" height="840.000000pt" viewBox="0 0 840.000000 840.000000"
 preserveAspectRatio="xMidYMid meet">
<metadata>
Created by potrace 1.14, written by Peter Selinger 2001-2017
</metadata>
<g transform="translate(0.000000,840.000000) scale(0.100000,-0.100000)"
fill="#000000" stroke="none">
<path d="M2097 8393 c1157 -2 3049 -2 4205 0 1157 1 211 2 -2102 2 -2313 0
-3259 -1 -2103 -2z"/>
<path d="M3092 7311 l-62 -6 -120 -120 c-112 -112 -119 -121 -98 -128 111 -41
209 -114 251 -187 l19 -31 -119 7 c-256 14 -457 -44 -568 -166 -30 -33 -30
-33 -5 -26 14 5 65 10 114 13 98 6 170 -6 247 -42 l49 -22 -88 -37 c-101 -41
-252 -126 -307 -172 l-37 -32 56 -16 c61 -18 127 -69 152 -118 13 -26 13 -29
-3 -35 -147 -50 -346 -138 -433 -192 l-31 -18 58 -21 c61 -23 133 -75 133 -96
0 -8 -24 -24 -52 -36 -69 -30 -224 -127 -289 -182 -28 -24 -75 -71 -104 -106
-52 -62 -109 -164 -103 -183 2 -5 19 2 38 15 64 43 238 136 349 186 593 267
1163 247 1651 -58 l75 -47 -55 -7 c-30 -3 -94 -6 -141 -7 -83 -1 -290 -19
-297 -25 -2 -2 6 -31 18 -65 19 -56 28 -170 14 -183 -3 -4 -39 29 -80 72 -41
43 -103 96 -137 119 -74 48 -188 87 -279 97 l-66 7 15 -58 c10 -38 13 -77 8
-112 l-6 -53 -63 45 c-116 82 -270 135 -397 135 l-52 0 27 -21 c14 -11 33 -34
41 -49 29 -56 27 -57 -118 -52 -78 3 -155 0 -184 -7 -55 -11 -193 -69 -193
-80 0 -4 59 -12 130 -19 461 -44 891 -178 1225 -382 119 -72 286 -204 380
-300 85 -87 87 -90 38 -57 -115 77 -254 127 -353 127 l-55 0 -1 -63 c-1 -48
-8 -79 -30 -128 l-30 -63 -63 104 c-80 132 -135 204 -235 308 -115 119 -114
119 -115 24 0 -76 -16 -142 -44 -183 -14 -19 -17 -17 -66 50 -55 76 -163 189
-278 290 l-73 63 -1 -78 c-1 -44 -4 -89 -7 -101 -7 -22 -8 -22 -76 18 -80 47
-169 86 -241 106 -54 15 -205 32 -205 23 0 -3 43 -44 96 -90 245 -217 466
-500 577 -740 86 -184 124 -336 134 -522 7 -144 -7 -266 -50 -413 l-32 -110
-6 100 c-3 55 -14 127 -24 159 -17 54 -20 57 -28 35 -29 -74 -120 -248 -142
-274 -18 -20 -25 -24 -21 -11 4 10 14 60 22 110 21 120 15 281 -16 393 l-22
82 -31 -41 c-33 -43 -83 -85 -91 -77 -3 3 6 27 19 54 58 118 70 302 29 435
l-16 55 -17 -40 c-31 -76 -60 -120 -106 -165 l-47 -45 7 40 c12 71 6 209 -14
287 -11 42 -36 113 -57 158 l-37 82 -23 -62 c-19 -53 -75 -130 -93 -130 -4 0
-6 66 -6 148 -1 169 -14 231 -76 355 -32 64 -38 85 -33 116 5 31 1 43 -21 69
-34 41 -75 43 -104 6 -24 -31 -27 -71 -7 -100 13 -19 12 -30 -14 -110 -34
-107 -73 -294 -96 -464 -9 -69 -18 -126 -19 -127 0 -1 -45 -8 -98 -14 -53 -7
-97 -15 -97 -18 0 -4 43 -28 96 -54 95 -47 96 -48 90 -79 -3 -17 -6 -54 -6
-83 l0 -53 -90 -23 c-104 -27 -105 -24 21 -91 l76 -40 13 -132 c7 -72 14 -147
14 -166 l1 -34 -104 -21 -104 -20 129 -97 130 -97 28 -123 c16 -67 30 -127 33
-134 2 -7 -41 -24 -117 -45 l-121 -35 153 -70 152 -71 32 -99 c33 -105 89
-252 149 -397 29 -68 41 -87 54 -83 9 3 126 33 261 66 725 181 1385 396 1880
613 582 256 1108 582 1670 1035 243 197 341 282 729 635 l44 40 -12 110 c-69
633 -336 1238 -758 1718 -505 574 -1145 921 -1918 1040 -137 22 -562 34 -693
20z m909 -807 c24 -17 80 -50 124 -73 44 -23 90 -52 103 -64 27 -25 92 -151
92 -178 0 -24 12 -24 33 -1 25 28 99 61 149 68 61 9 102 -6 233 -84 61 -35
126 -70 145 -77 l35 -12 -36 -11 c-48 -13 -96 -3 -199 43 -155 70 -257 48
-392 -85 l-67 -65 6 85 c6 97 -11 176 -50 221 -12 15 -55 48 -95 74 -85 55
-125 101 -152 173 -28 73 -26 95 4 52 13 -19 43 -49 67 -66z"/>
<path d="M2550 7218 c-549 -164 -921 -371 -1323 -732 -74 -67 -247 -254 -330
-357 l-36 -45 20 -55 c106 -280 279 -522 547 -767 l88 -81 33 167 c118 593
325 1085 611 1447 113 143 217 250 330 340 60 48 110 89 110 91 0 5 -9 4 -50
-8z"/>
<path d="M7890 6329 c-40 -16 -172 -160 -245 -268 -56 -83 -74 -102 -99 -107
-17 -3 -226 -47 -464 -97 l-433 -92 -53 -100 -54 -100 27 -2 c14 0 191 -4 394
-8 202 -4 367 -11 367 -15 0 -4 -29 -67 -64 -141 -51 -108 -107 -246 -141
-346 -3 -10 -41 -13 -143 -13 l-138 0 -45 -82 c-24 -46 -45 -86 -47 -90 -2 -5
20 -8 50 -8 29 0 103 -3 165 -7 l111 -6 6 -29 c7 -34 29 -45 65 -31 26 9 30 6
116 -115 50 -69 95 -127 100 -129 6 -1 30 34 54 80 l44 83 -75 116 -76 115 38
49 c53 70 169 246 219 332 23 39 44 72 46 72 2 0 104 -144 226 -320 122 -176
225 -320 228 -320 12 0 103 192 98 208 -2 9 -79 208 -171 441 l-168 424 47
120 c84 215 105 354 60 382 -14 9 -27 10 -45 4z"/>
<path d="M629 5728 c-106 -181 -221 -456 -287 -688 -93 -322 -132 -690 -112
-1044 38 -664 301 -1326 723 -1821 74 -86 227 -250 227 -242 0 3 -14 63 -31
134 -65 273 -126 672 -150 978 -22 284 -3 711 45 970 60 329 191 661 358 908
21 31 37 57 36 57 -306 7 -326 9 -396 29 -101 30 -179 71 -229 123 l-42 43 70
80 c38 44 69 82 69 85 0 3 -58 21 -130 39 -71 19 -130 36 -130 38 0 17 42 77
86 123 l53 56 -25 38 c-15 21 -39 67 -55 102 -16 35 -31 64 -34 64 -2 0 -23
-33 -46 -72z"/>
<path d="M1631 5114 c-30 -38 -27 -80 8 -115 37 -37 73 -38 100 -3 28 36 26
76 -5 113 -33 40 -74 42 -103 5z"/>
<path d="M1503 5112 c-30 -5 -53 -39 -53 -80 0 -38 45 -92 78 -92 58 0 91 84
52 133 -26 33 -48 44 -77 39z"/>
<path d="M6958 4583 c-649 -783 -1687 -1577 -2743 -2098 -435 -214 -768 -353
-1166 -486 -538 -179 -996 -285 -1559 -361 -22 -3 -13 -11 60 -60 86 -57 252
-143 370 -193 36 -15 206 -78 378 -140 l313 -113 232 69 c468 138 896 307
1327 525 656 330 1246 750 1720 1224 199 198 333 347 477 532 287 367 516 760
668 1146 18 45 32 82 31 82 -2 0 -50 -57 -108 -127z"/>
<path d="M6210 3082 c0 -16 -403 -415 -555 -549 -336 -297 -721 -577 -1105
-805 -348 -207 -906 -469 -1308 -614 -70 -26 -129 -49 -132 -52 -10 -10 419 8
540 23 575 72 1111 293 1567 647 200 155 454 418 619 643 120 164 269 432 355
639 16 38 27 71 24 74 -3 3 -5 0 -5 -6z"/>
<path d="M2097 3 c1157 -2 3049 -2 4205 0 1157 1 211 2 -2102 2 -2313 0 -3259
-1 -2103 -2z"/>
</g>
</svg>
